<svg width="0" height="0" class="hidden">
  <symbol version="1.0" xmlns="http://www.w3.org/2000/svg" preserveAspectRatio="xMidYMid meet" viewBox="0 0 184.000000 312.000000" id="Screenshot-2022-05-23-at-19.49.25">
    <g transform="translate(0.000000,312.000000) scale(0.100000,-0.100000)" fill="#000000" stroke="none">
      <path d="M218 1778 c1 -684 3 -1325 5 -1425 l2 -183 95 62 c52 35 209 138 348
230 139 93 257 168 262 168 5 0 161 -100 347 -223 186 -123 344 -227 350 -231
10 -6 13 270 13 1363 0 753 3 1395 6 1426 l7 55 -719 0 -719 0 3 -1242z"></path>
    </g>
  </symbol>
</svg>